# xmcd
#
# Track frame offsets: 
#        150
#        16207
#        30953
#        49178
#        66636
#        84940
#        102316
#        120592
#        140151
#        157078
#        175068
#        194714
#        209444
#
# Disc length: 3038 seconds
#
# Revision: 0
# Processed by: cddbd v1.5.2PL0 Copyright (c) Steve Scherf et al.
# Submitted via: ExactAudioCopy v0.90b4
#
DISCID=b90bdc0d
DTITLE=Miguel and Berny - Todo Por Luna
DYEAR=2007
DGENRE=Latin
TTITLE0=Ayúdala
TTITLE1=Como Quisiera Enamorarme
TTITLE2=Teresa
TTITLE3=Lo Perdi Todo
TTITLE4=No Me Dejes Morir
TTITLE5=Bandolero
TTITLE6=Cancion Desesperada
TTITLE7=Me Acordare De Ti
TTITLE8=12 Años
TTITLE9=Sin Testigos
TTITLE10=Quemo La Cama
TTITLE11=Fuí Tu Dueño
TTITLE12=Adolescente
EXTD=
EXTT0=
EXTT1=
EXTT2=
EXTT3=
EXTT4=
EXTT5=
EXTT6=
EXTT7=
EXTT8=
EXTT9=
EXTT10=
EXTT11=
EXTT12=
PLAYORDER=
